<svg width="25" height="24" viewBox="0 0 25 24" fill="none" xmlns="http://www.w3.org/2000/svg">
<path fill-rule="evenodd" clip-rule="evenodd" d="M12.5 6C10.8431 6 9.5 7.34315 9.5 9V13H7.5V9C7.5 6.23858 9.73858 4 12.5 4C15.2614 4 17.5 6.23858 17.5 9V13H15.5V9C15.5 7.34315 14.1569 6 12.5 6Z" fill="#0F0F0F"/>
<path fill-rule="evenodd" clip-rule="evenodd" d="M19.5 10H5.5V20H19.5V10ZM14.5 14C14.5 14.7428 14.095 15.3911 13.4938 15.736L14.5 18H10.5L11.5062 15.736C10.905 15.3911 10.5 14.7428 10.5 14C10.5 12.8954 11.3954 12 12.5 12C13.6046 12 14.5 12.8954 14.5 14Z" fill="#0F0F0F"/>
</svg>
