<svg width="66" height="53" viewBox="0 0 66 53" fill="none" xmlns="http://www.w3.org/2000/svg">
<g filter="url(#filter0_d_1070_6504)">
<path d="M45.4444 35.6667H20.5556L19.0386 26.5648C18.9545 26.0606 19.5875 25.7071 19.9918 26.02C21.4195 27.1251 23.8531 28.7122 25.8889 28.5556C28.8584 28.3271 31.4136 24.3557 32.4751 22.4496C32.695 22.0548 33.305 22.0548 33.5249 22.4496C34.5864 24.3557 37.1416 28.3271 40.1111 28.5556C42.1469 28.7122 44.5805 27.1251 46.0082 26.02C46.4125 25.7071 47.0455 26.0606 46.9614 26.5648L45.4444 35.6667Z" fill="#FECC4C"/>
<path d="M34.7778 18.7778C34.7778 19.7596 33.9818 20.5556 33 20.5556C32.0182 20.5556 31.2222 19.7596 31.2222 18.7778C31.2222 17.7959 32.0182 17 33 17C33.9818 17 34.7778 17.7959 34.7778 18.7778Z" fill="#FECC4C"/>
<path d="M20.5556 22.3333C20.5556 23.3152 19.7596 24.1111 18.7778 24.1111C17.7959 24.1111 17 23.3152 17 22.3333C17 21.3515 17.7959 20.5556 18.7778 20.5556C19.7596 20.5556 20.5556 21.3515 20.5556 22.3333Z" fill="#FECC4C"/>
<path d="M49 22.3333C49 23.3152 48.2041 24.1111 47.2222 24.1111C46.2404 24.1111 45.4444 23.3152 45.4444 22.3333C45.4444 21.3515 46.2404 20.5556 47.2222 20.5556C48.2041 20.5556 49 21.3515 49 22.3333Z" fill="#FECC4C"/>
<path d="M45.4444 36.1667H45.868L45.9376 35.7489L47.4546 26.647C47.5379 26.1474 47.2569 25.745 46.9143 25.5509C46.5737 25.358 46.0916 25.3232 45.7022 25.6246C45.0025 26.1662 44.0664 26.8177 43.0659 27.3128C42.0557 27.8127 41.0352 28.1252 40.1495 28.057C38.8633 27.9581 37.5943 27.0321 36.4729 25.7958C35.3669 24.5766 34.4842 23.1445 33.9617 22.2063C33.5512 21.4692 32.4488 21.4692 32.0383 22.2063C31.5158 23.1445 30.6331 24.5766 29.5271 25.7958C28.4057 27.0321 27.1367 27.9581 25.8505 28.057C24.9648 28.1252 23.9443 27.8127 22.9341 27.3128C21.9336 26.8177 20.9975 26.1662 20.2978 25.6246C19.9084 25.3232 19.4263 25.358 19.0857 25.5509C18.7431 25.745 18.4621 26.1474 18.5454 26.647L20.0624 35.7489L20.132 36.1667H20.5556H45.4444ZM33 21.0556C34.258 21.0556 35.2778 20.0358 35.2778 18.7778C35.2778 17.5198 34.258 16.5 33 16.5C31.742 16.5 30.7222 17.5198 30.7222 18.7778C30.7222 20.0358 31.742 21.0556 33 21.0556ZM18.7778 24.6111C20.0358 24.6111 21.0556 23.5913 21.0556 22.3333C21.0556 21.0754 20.0358 20.0556 18.7778 20.0556C17.5198 20.0556 16.5 21.0754 16.5 22.3333C16.5 23.5913 17.5198 24.6111 18.7778 24.6111ZM47.2222 24.6111C48.4802 24.6111 49.5 23.5913 49.5 22.3333C49.5 21.0754 48.4802 20.0556 47.2222 20.0556C45.9642 20.0556 44.9444 21.0754 44.9444 22.3333C44.9444 23.5913 45.9642 24.6111 47.2222 24.6111Z" stroke="#0F0F0F"/>
</g>
<defs>
<filter id="filter0_d_1070_6504" x="0" y="0" width="66" height="52.6665" filterUnits="userSpaceOnUse" color-interpolation-filters="sRGB">
<feFlood flood-opacity="0" result="BackgroundImageFix"/>
<feColorMatrix in="SourceAlpha" type="matrix" values="0 0 0 0 0 0 0 0 0 0 0 0 0 0 0 0 0 0 127 0" result="hardAlpha"/>
<feOffset/>
<feGaussianBlur stdDeviation="8"/>
<feComposite in2="hardAlpha" operator="out"/>
<feColorMatrix type="matrix" values="0 0 0 0 0.996078 0 0 0 0 0.8 0 0 0 0 0.298039 0 0 0 0.4 0"/>
<feBlend mode="normal" in2="BackgroundImageFix" result="effect1_dropShadow_1070_6504"/>
<feBlend mode="normal" in="SourceGraphic" in2="effect1_dropShadow_1070_6504" result="shape"/>
</filter>
</defs>
</svg>
