<svg width="60" height="61" viewBox="0 0 60 61" fill="none" xmlns="http://www.w3.org/2000/svg">
<path d="M59.8842 30.5083C59.8716 22.5932 56.7239 15.006 51.1309 9.40917C45.5379 3.81237 37.9558 0.66257 30.0461 0.650024C22.134 0.662579 14.5497 3.81429 8.95631 9.41411C3.3629 15.0139 0.216857 22.6048 0.208008 30.5223C0.220554 38.4397 3.37014 46.0291 8.96617 51.6263C14.5622 57.2235 22.1479 60.3717 30.06 60.3805C37.9699 60.365 45.551 57.2119 51.1416 51.6123C56.7322 46.0128 59.876 38.4236 59.8842 30.5083V30.5083ZM37.1542 58.3686L41.616 50.6082H50.5395C46.8697 54.3697 42.2405 57.0536 37.1542 58.3686V58.3686ZM51.5964 49.492H41.6299L38.9724 44.8849L36.3149 40.2778L38.9724 35.6735L41.6299 31.0664H52.2629L57.2573 39.7169C56.0341 43.3175 54.1101 46.6398 51.5964 49.492V49.492ZM35.35 39.7253H24.7198L22.0623 35.121L19.402 30.5139L22.0623 25.9068L24.7198 21.2997H35.35L38.0075 25.9068L40.6651 30.5139L38.0075 35.121L35.35 39.7253ZM58.7743 30.5167C58.7759 33.1399 58.4184 35.7509 57.7118 38.277L53.2278 30.5083L57.7063 22.7479C58.413 25.274 58.7705 27.8851 58.7687 30.5083L58.7743 30.5167ZM51.602 11.5413C54.1153 14.3906 56.0393 17.7102 57.2629 21.308L52.2685 29.9586H41.6355L38.978 25.3515L36.3204 20.7444L38.978 16.1373L41.6355 11.5329L51.602 11.5413ZM50.5674 10.4251H41.6439L37.1821 2.66476C42.265 3.97491 46.8923 6.65298 50.5618 10.4084L50.5674 10.4251ZM30.0405 1.77459C31.9329 1.7741 33.8207 1.96104 35.6763 2.33269L40.6707 10.9832L38.0131 15.5875L35.3556 20.1946H24.7254L22.0679 15.5875L19.4076 10.9832L24.4019 2.33269C26.2559 1.95377 28.1427 1.75934 30.0349 1.75226L30.0405 1.77459ZM22.9212 2.67034L18.4427 10.4307H9.51916C13.1881 6.65773 17.8221 3.96559 22.9156 2.64802L22.9212 2.67034ZM8.47622 11.5469H18.4427L21.1002 16.1512L23.7578 20.7583L21.1002 25.3654L18.4427 29.9725H7.81254L2.81815 21.322C4.03508 17.7137 5.95646 14.3834 8.47065 11.5246L8.47622 11.5469ZM1.30393 30.5223C1.30168 27.8988 1.66012 25.2876 2.36918 22.7619L6.83094 30.5223L2.36918 38.2826C1.65715 35.7527 1.29682 33.1367 1.29835 30.5083L1.30393 30.5223ZM8.47622 49.4976C5.96431 46.6478 4.0413 43.3283 2.81815 39.7309L7.81254 31.0804H18.4427L21.1002 35.6875L23.7578 40.2918L21.1002 44.8989L18.4427 49.506L8.47622 49.4976ZM9.51358 50.6138H18.4371L22.9156 58.3742C17.82 57.0632 13.1821 54.3768 9.50801 50.6082L9.51358 50.6138ZM19.4076 50.0557L22.0679 45.4486L24.7254 40.8415H35.3556L38.0131 45.4486L40.6707 50.0557L35.6763 58.7062C33.8205 59.0765 31.9328 59.2634 30.0405 59.2643C28.1473 59.2636 26.2587 59.0766 24.4019 58.7062L19.4076 50.0557Z" fill="white"/>
</svg>



