<svg width="88" height="89" viewBox="0 0 88 89" fill="none" xmlns="http://www.w3.org/2000/svg">
<path d="M9.61511 39.0418L5.38201 38.1545L6.26042 33.9715L5.2119 33.7511L4.33349 37.934L1.2967 37.295L2.38147 32.1158L1.33295 31.8954L0 38.2549L9.36692 40.2222L9.61511 39.0418Z" fill="white"/>
<path d="M2.84462 27.9681L2.41113 29.0929L11.3406 32.539L11.774 31.4143L2.84462 27.9681Z" fill="white"/>
<path d="M13.0698 28.4993L9.33862 26.3144L11.4914 22.6253L10.5684 22.084L8.4128 25.7758L5.73295 24.2075L8.39886 19.6395L7.47583 19.0981L4.19922 24.707L12.4619 29.5374L13.0698 28.4993Z" fill="white"/>
<path d="M16.272 23.3006L15.0645 21.0682L17.8977 17.9428L20.2402 18.9279L21.0767 18.007L11.6206 14.1785L10.7227 15.1719L15.4354 24.227L16.272 23.3006ZM11.9859 15.4314L12.0026 15.4091L16.8436 17.5075L14.5403 20.0469L11.9859 15.4314Z" fill="white"/>
<path d="M26.7344 14.2008L25.1003 5.85446L25.1254 5.84329L30.7221 12.2419L31.924 11.6503L29.8354 2.00916L28.6948 2.57004L30.5158 10.4197L30.4907 10.4309L25.1115 4.32806L23.9124 4.91964L25.4433 12.9088L25.421 12.92L20.329 6.67765L19.1885 7.23854L25.5326 14.7896L26.7344 14.2008Z" fill="white"/>
<path d="M38.6699 10.2801C41.4585 9.8476 42.9728 7.48963 42.5322 4.63496C42.0916 1.78028 39.9164 0.0138988 37.139 0.449216C34.3615 0.884533 32.8306 3.23971 33.274 6.08043C33.7174 8.92115 35.8925 10.7127 38.6699 10.2801ZM37.3035 1.50402C39.685 1.13568 41.0235 2.78207 41.3414 4.82192C41.6593 6.86177 40.8841 8.8486 38.5026 9.21974C36.1212 9.59087 34.7826 7.93053 34.4647 5.89347C34.1468 3.85641 34.9221 1.87516 37.3035 1.50402V1.50402Z" fill="white"/>
<path d="M46.0342 5.7987L48.7643 6.07775C51.1708 6.33169 49.902 9.68586 50.2729 10.1295L51.564 10.2663V10.1854C51.0872 9.97328 52.2556 6.31215 50.1837 5.67592V5.65081C51.2629 5.49454 51.9963 4.81365 52.1357 3.43236C52.3142 1.74132 51.1569 0.594426 49.2802 0.396301L45.4207 -0.0111084L44.4141 9.51005L45.6104 9.63841L46.0342 5.7987ZM46.5222 1.19159L48.9037 1.44274C49.8881 1.54878 51.1151 1.79992 50.9394 3.4491C50.7637 5.09828 49.5144 5.08991 48.53 4.98667L46.1458 4.73552L46.5222 1.19159Z" fill="white"/>
<path d="M58.9376 11.6587L54.1914 10.0262L56.9577 1.98125L55.8172 1.59058L52.7051 10.6485L58.5918 12.6744L58.9376 11.6587Z" fill="white"/>
<path d="M68.6217 13.1823C70.2698 10.5816 69.8208 8.26545 67.5927 6.85067L64.6647 4.995L59.542 13.0874L62.47 14.9431C64.6953 16.3663 66.9708 15.797 68.6217 13.1823ZM65.108 6.54651L67.021 7.75758C69.0762 9.06353 68.6077 10.9527 67.6066 12.5377C66.6055 14.1227 65.0969 15.3282 63.0417 14.0362L61.1315 12.8251L65.108 6.54651Z" fill="white"/>
<path d="M76.971 24.5452L76.2348 23.5908C75.2337 24.2633 73.6776 24.481 72.4506 22.8904C71.0563 21.0877 72.0407 19.1316 73.5661 17.9456C75.0915 16.7597 77.2303 16.3188 78.619 18.1214C79.8377 19.7009 79.1768 21.0877 78.5661 21.7826L79.3023 22.7369C80.6045 21.4449 80.8973 19.3241 79.4668 17.4685C77.8661 15.3895 75.1082 15.2361 72.8299 16.9913C70.5516 18.7465 69.9911 21.4561 71.5918 23.5434C73.0418 25.4102 75.1668 25.6669 76.971 24.5452Z" fill="white"/>
<path d="M75.9145 30.9633C76.9156 33.3185 78.6557 33.7873 80.4543 33.0199L86.3299 30.5224L85.8586 29.4062L79.983 31.9177C78.5553 32.526 77.5514 32.0795 76.9016 30.5503C76.2519 29.0211 76.6228 27.9887 78.0561 27.3803L83.9317 24.8689L83.4604 23.7527L77.5848 26.2641C75.7862 27.0315 74.9134 28.6109 75.9145 30.9633Z" fill="white"/>
<path d="M87.9301 37.8809L87.3055 34.1277L77.8633 35.6876L78.0585 36.8763L82.0071 36.2261L82.431 38.7878C82.7099 40.5207 83.7026 41.729 85.6825 41.4025C87.6624 41.076 88.2146 39.6138 87.9301 37.8809ZM85.4929 40.2138C84.344 40.4007 83.7082 39.9347 83.513 38.7459L83.0696 36.0503L86.4522 35.4922L86.8956 38.1879C87.0908 39.3654 86.6418 40.024 85.4929 40.2138Z" fill="white"/>
<path d="M16.1601 65.0436C14.4869 62.7805 11.6983 62.5098 9.38097 64.2065C7.06364 65.9031 6.4864 68.6713 8.15398 70.9371C8.72901 71.7422 9.54121 72.3471 10.4769 72.6672L10.2371 74.2578L11.3051 74.4197L11.5421 72.8458C12.7687 72.8941 13.9729 72.5066 14.9414 71.752C17.2588 70.0581 17.8277 67.3179 16.1601 65.0436ZM14.2276 70.7948C13.5063 71.3574 12.6308 71.6864 11.7178 71.738L11.9967 69.8823L10.9286 69.7205L10.6498 71.5762C9.99331 71.3278 9.42614 70.8885 9.02124 70.3149C7.59068 68.3615 8.444 66.4082 10.1032 65.1887C11.7624 63.9693 13.8734 63.7377 15.304 65.6799C16.7345 67.622 15.8868 69.5726 14.2276 70.7948Z" fill="white"/>
<path d="M12.9395 76.4568L13.9071 77.2381L16.0683 75.9015L19.3505 78.5525L18.5139 80.9467L19.4843 81.7308L22.7414 72.0618L21.6985 71.2246L12.9395 76.4568ZM19.7213 77.4725L17.0526 75.3211L21.5144 72.4999L21.5339 72.5166L19.7213 77.4725Z" fill="white"/>
<path d="M31.5786 77.2632L24.8358 73.8058L24.345 74.7601L27.181 76.214L23.3076 83.7846L24.3784 84.3343L28.2546 76.7637L31.0906 78.2148L31.5786 77.2632Z" fill="white"/>
<path d="M34.2248 77.9413L28.3018 86.2514L29.5009 86.5779L30.9454 84.4878L35.0139 85.604L35.198 88.1405L36.3971 88.467L35.5187 78.3013L34.2248 77.9413ZM31.6146 83.5585L34.5678 79.1859H34.5928L34.9191 84.4515L31.6146 83.5585Z" fill="white"/>
<path d="M46.7422 82.1381C46.7868 80.4387 45.5403 79.3867 43.6552 79.3476L39.7734 79.2472L39.5225 88.8214L40.7271 88.8521L40.8275 84.9844L43.5715 85.0542C45.9948 85.1184 44.9937 88.5619 45.3981 88.9748L46.6975 89.0083V88.9302C46.2067 88.7544 47.0824 85.0235 44.9658 84.5407V84.5156C46.0339 84.2645 46.7059 83.5166 46.7422 82.1381ZM43.2452 83.9631L40.8498 83.9017L40.9447 80.3383L43.3401 80.4025C44.33 80.4276 45.5709 80.581 45.5263 82.2414C45.4817 83.9017 44.2436 83.9882 43.2452 83.9631Z" fill="white"/>
<path d="M54.62 86.5722V86.5471C54.5419 84.2645 58.8029 82.7967 57.9078 79.7551C57.4058 78.0612 55.8107 77.4864 54.2826 77.9384C52.0907 78.5886 51.5191 80.3383 52.0657 82.1744L53.2201 81.8312C52.8576 80.6117 53.011 79.4342 54.5615 78.9709C55.9223 78.5691 56.5135 79.3672 56.7449 80.1122C57.1298 81.4098 56.3991 81.9595 55.0299 83.4162C53.6607 84.8728 53.0445 86.4104 53.5213 88.0149L59.6562 86.1871L59.3523 85.1602L54.62 86.5722Z" fill="white"/>
<path d="M61.1462 75.0029C58.9432 76.2447 59.1217 78.6641 60.4072 80.9523C61.6927 83.2405 63.6643 84.6357 65.8673 83.394C68.0703 82.1522 67.9002 79.744 66.6118 77.4558C65.3235 75.1676 63.352 73.7612 61.1462 75.0029ZM65.343 82.4592C63.8037 83.327 62.4234 82.0741 61.4585 80.3607C60.4936 78.6473 60.1339 76.8028 61.6732 75.935C63.2125 75.0671 64.5985 76.3312 65.5633 78.0474C66.5282 79.7635 66.8823 81.5913 65.343 82.4592Z" fill="white"/>
<path d="M71.6281 77.9636L71.6113 77.9412C70.5628 75.9153 73.7892 72.7565 71.6671 70.4069C70.4847 69.0926 68.8004 69.26 67.6264 70.3176C65.9254 71.8496 66.1596 73.6662 67.4396 75.0977L68.3431 74.294C67.4926 73.3481 67.1273 72.2179 68.3291 71.1352C69.386 70.1864 70.2812 70.6497 70.7887 71.2273C71.695 72.2319 71.2711 73.0439 70.6604 74.947C70.0497 76.8501 70.1501 78.5049 71.2683 79.7495L76.0341 75.4577L75.3174 74.6624L71.6281 77.9636Z" fill="white"/>
<path d="M78.0337 71.4227L78.0114 71.4059C76.5613 69.6423 79.0571 65.8807 76.4916 64.0167C75.061 62.9786 73.4464 63.4949 72.5206 64.7729C71.1765 66.6258 71.7872 68.3615 73.3349 69.4861L74.0432 68.5094C73.0142 67.7615 72.4202 66.7346 73.3711 65.4231C74.2077 64.2734 75.167 64.5441 75.7944 64.999C76.8876 65.7942 76.645 66.6733 76.4442 68.6657C76.2434 70.6581 76.6896 72.2514 78.0421 73.2337L81.8067 68.0406L80.9394 67.4127L78.0337 71.4227Z" fill="white"/>
</svg>
