<svg width="16" height="17" viewBox="0 0 16 17" fill="none" xmlns="http://www.w3.org/2000/svg">
<path d="M13.9996 8.99705C13.9996 9.2982 13.7552 9.54245 13.4542 9.54245C13.1531 9.54245 12.9088 9.298 12.9088 8.99705C12.9088 7.68573 12.398 6.45301 11.471 5.52579C9.55681 3.61179 6.44263 3.61179 4.52868 5.52579L4.30268 5.75179H5.68569C5.98684 5.75179 6.23109 5.99625 6.23109 6.2972C6.23109 6.59834 5.98664 6.8426 5.68569 6.8426H2.986C2.68485 6.8426 2.4406 6.59814 2.4406 6.2972V3.5975C2.4406 3.29636 2.68505 3.0521 2.986 3.0521C3.28715 3.0521 3.5314 3.29656 3.5314 3.5975V4.98052L3.7574 4.75451C6.09656 2.41516 9.90347 2.41516 12.2426 4.75451C13.3758 5.88779 14 7.39445 14 8.997L13.9996 8.99705ZM13.0138 11.1513H10.3141C10.013 11.1513 9.76871 11.3957 9.76871 11.6967C9.76871 11.9978 10.0132 12.2421 10.3141 12.2421H11.6971L11.4711 12.4681C9.55693 14.3821 6.44275 14.3821 4.5288 12.4681C3.60158 11.5411 3.09081 10.3083 3.09081 8.99703C3.09081 8.69588 2.84635 8.45163 2.5454 8.45163C2.24426 8.45163 2 8.69608 2 8.99703C2 10.5996 2.62435 12.1063 3.75742 13.2399C4.92683 14.4093 6.46335 14.9943 7.99991 14.9943C9.53648 14.9943 11.073 14.4093 12.2424 13.2395L12.4684 13.0135V14.3965C12.4684 14.6977 12.7129 14.9419 13.0138 14.9419C13.315 14.9419 13.5592 14.6975 13.5592 14.3965V11.6968C13.5594 11.3957 13.3149 11.1512 13.014 11.1512L13.0138 11.1513Z" fill="white"/>
</svg>
