<svg width="57" height="48" viewBox="0 0 57 48" fill="none" xmlns="http://www.w3.org/2000/svg">
<g filter="url(#filter0_d_1166_4234)">
<path d="M38.3333 31H19.6667L18.5289 24.1736C18.4659 23.7955 18.9407 23.5304 19.2438 23.765C20.3146 24.5938 22.1398 25.7841 23.6667 25.6667C25.8938 25.4953 27.8102 22.5168 28.6063 21.0872C28.7712 20.7911 29.2288 20.7911 29.3937 21.0872C30.1898 22.5168 32.1062 25.4953 34.3333 25.6667C35.8602 25.7841 37.6854 24.5938 38.7562 23.765C39.0593 23.5304 39.5341 23.7955 39.4711 24.1736L38.3333 31Z" fill="#FECC4C"/>
<path d="M30.3333 18.3333C30.3333 19.0697 29.7364 19.6667 29 19.6667C28.2636 19.6667 27.6667 19.0697 27.6667 18.3333C27.6667 17.597 28.2636 17 29 17C29.7364 17 30.3333 17.597 30.3333 18.3333Z" fill="#FECC4C"/>
<path d="M19.6667 21C19.6667 21.7364 19.0697 22.3333 18.3333 22.3333C17.597 22.3333 17 21.7364 17 21C17 20.2636 17.597 19.6667 18.3333 19.6667C19.0697 19.6667 19.6667 20.2636 19.6667 21Z" fill="#FECC4C"/>
<path d="M41 21C41 21.7364 40.403 22.3333 39.6667 22.3333C38.9303 22.3333 38.3333 21.7364 38.3333 21C38.3333 20.2636 38.9303 19.6667 39.6667 19.6667C40.403 19.6667 41 20.2636 41 21Z" fill="#FECC4C"/>
<path d="M19.1735 31.0822L19.2431 31.5H19.6667H38.3333H38.7569L38.8265 31.0822L39.9643 24.2558C40.037 23.8192 39.7904 23.4704 39.4973 23.3044C39.2063 23.1396 38.789 23.1073 38.4501 23.3696C37.9289 23.7731 37.2341 24.2563 36.494 24.6226C35.7441 24.9936 35.003 25.2167 34.3717 25.1681C33.4568 25.0978 32.533 24.4342 31.6972 23.5128C30.877 22.6086 30.2203 21.5439 29.8305 20.8439C29.475 20.2055 28.525 20.2055 28.1695 20.8439C27.7797 21.5439 27.123 22.6086 26.3028 23.5128C25.467 24.4342 24.5432 25.0978 23.6283 25.1681C22.997 25.2167 22.2559 24.9936 21.506 24.6226C20.7659 24.2563 20.0711 23.7731 19.5499 23.3696C19.211 23.1073 18.7937 23.1396 18.5027 23.3044C18.2096 23.4704 17.963 23.8192 18.0357 24.2558L19.1735 31.0822ZM29 20.1667C30.0125 20.1667 30.8333 19.3459 30.8333 18.3333C30.8333 17.3208 30.0125 16.5 29 16.5C27.9875 16.5 27.1667 17.3208 27.1667 18.3333C27.1667 19.3459 27.9875 20.1667 29 20.1667ZM18.3333 22.8333C19.3459 22.8333 20.1667 22.0125 20.1667 21C20.1667 19.9875 19.3459 19.1667 18.3333 19.1667C17.3208 19.1667 16.5 19.9875 16.5 21C16.5 22.0125 17.3208 22.8333 18.3333 22.8333ZM39.6667 22.8333C40.6792 22.8333 41.5 22.0125 41.5 21C41.5 19.9875 40.6792 19.1667 39.6667 19.1667C38.6541 19.1667 37.8333 19.9875 37.8333 21C37.8333 22.0125 38.6541 22.8333 39.6667 22.8333Z" stroke="#0F0F0F"/>
</g>
<defs>
<filter id="filter0_d_1166_4234" x="0" y="0" width="58" height="48" filterUnits="userSpaceOnUse" color-interpolation-filters="sRGB">
<feFlood flood-opacity="0" result="BackgroundImageFix"/>
<feColorMatrix in="SourceAlpha" type="matrix" values="0 0 0 0 0 0 0 0 0 0 0 0 0 0 0 0 0 0 127 0" result="hardAlpha"/>
<feOffset/>
<feGaussianBlur stdDeviation="8"/>
<feComposite in2="hardAlpha" operator="out"/>
<feColorMatrix type="matrix" values="0 0 0 0 0.996078 0 0 0 0 0.8 0 0 0 0 0.298039 0 0 0 0.4 0"/>
<feBlend mode="normal" in2="BackgroundImageFix" result="effect1_dropShadow_1166_4234"/>
<feBlend mode="normal" in="SourceGraphic" in2="effect1_dropShadow_1166_4234" result="shape"/>
</filter>
</defs>
</svg>

