<svg width="36" height="35" viewBox="0 0 36 35" fill="none" xmlns="http://www.w3.org/2000/svg">
<path d="M36 17.4959C35.9924 12.858 34.0936 8.41208 30.7196 5.13255C27.3456 1.85302 22.7716 0.0073512 18 0C13.227 0.00735636 8.65173 1.85415 5.27747 5.13545C1.90321 8.41674 0.00533845 12.8647 0 17.5041C0.00756831 22.1434 1.90758 26.5906 5.28341 29.8703C8.65925 33.1501 13.2354 34.9948 18.0084 35C22.7801 34.9909 27.3535 33.1433 30.726 29.8621C34.0985 26.581 35.9951 22.134 36 17.4959V17.4959ZM22.288 33.8211L24.9796 29.2738H30.3628C28.149 31.4779 25.3564 33.0505 22.288 33.8211V33.8211ZM31.0004 28.6197H24.988L23.3849 25.9201L21.7817 23.2205L23.3849 20.5225L24.988 17.8229H31.4024L34.4153 22.8918C33.6774 25.0016 32.5168 26.9484 31.0004 28.6197V28.6197ZM21.1996 22.8968H14.7869L13.1837 20.1988L11.5789 17.4992L13.1837 14.7996L14.7869 12.1H21.1996L22.8028 14.7996L24.406 17.4992L22.8028 20.1988L21.1996 22.8968ZM35.3305 17.5008C35.3314 19.0379 35.1158 20.5679 34.6895 22.0481L31.9845 17.4959L34.6862 12.9486C35.1125 14.4288 35.3282 15.9588 35.3271 17.4959L35.3305 17.5008ZM31.0037 6.38192C32.5199 8.05151 33.6806 9.99664 34.4187 12.1049L31.4058 17.1738H24.9914L23.3882 14.4742L21.785 11.7746L23.3882 9.07498L24.9914 6.37702L31.0037 6.38192ZM30.3796 5.72787H24.9965L22.3049 1.18057C25.3711 1.94827 28.1626 3.51752 30.3763 5.71806L30.3796 5.72787ZM17.9966 0.658958C19.1382 0.658669 20.2771 0.768211 21.3964 0.985984L24.4093 6.05489L22.8062 8.75286L21.203 11.4525H14.7903L13.1871 8.75286L11.5822 6.05489L14.5951 0.985984C15.7135 0.763947 16.8518 0.65002 17.9933 0.645874L17.9966 0.658958ZM13.7019 1.18383L11.0002 5.73114H5.61701C7.83033 3.52031 10.6258 1.94281 13.6985 1.17076L13.7019 1.18383ZM4.98785 6.38519H11.0002L12.6034 9.08316L14.2065 11.7828L12.6034 14.4824L11.0002 17.182H4.58748L1.57458 12.1131C2.30871 9.99873 3.46779 8.04729 4.98449 6.37211L4.98785 6.38519ZM0.66112 17.5041C0.659764 15.9668 0.875998 14.4367 1.30374 12.9568L3.99533 17.5041L1.30374 22.0514C0.874201 20.5689 0.656831 19.036 0.657758 17.4959L0.66112 17.5041ZM4.98785 28.623C3.47253 26.9531 2.31246 25.008 1.57458 22.9L4.58748 17.8311H11.0002L12.6034 20.5307L14.2065 23.2287L12.6034 25.9283L11.0002 28.6279L4.98785 28.623ZM5.61364 29.277H10.9968L13.6985 33.8243C10.6245 33.0562 7.82668 31.482 5.61028 29.2738L5.61364 29.277ZM11.5822 28.95L13.1871 26.2504L14.7903 23.5508H21.203L22.8062 26.2504L24.4093 28.95L21.3964 34.0189C20.2769 34.2359 19.1382 34.3454 17.9966 34.3459C16.8545 34.3455 15.7152 34.236 14.5951 34.0189L11.5822 28.95Z" fill="white"/>
</svg>
